<?xml version="1.0" standalone="no"?>
<!DOCTYPE svg PUBLIC "-//W3C//DTD SVG 20010904//EN"
 "http://www.w3.org/TR/2001/REC-SVG-20010904/DTD/svg10.dtd">
<svg version="1.0" xmlns="http://www.w3.org/2000/svg"
 width="544.000000pt" height="544.000000pt" viewBox="0 0 544.000000 544.000000"
 preserveAspectRatio="xMidYMid meet">
<metadata>
Created by potrace 1.14, written by Peter Selinger 2001-2017
</metadata>
<g transform="translate(0.000000,544.000000) scale(0.100000,-0.100000)"
fill="#000000" stroke="none">
<path d="M2499 5426 c-2 -2 -36 -7 -75 -10 -40 -4 -98 -11 -130 -17 -33 -5
-75 -12 -94 -15 -19 -3 -71 -14 -115 -25 -44 -11 -90 -22 -101 -25 -44 -8
-262 -87 -354 -127 -250 -108 -479 -252 -682 -426 -42 -36 -75 -67 -74 -68 1
-1 103 18 227 42 123 25 238 48 254 51 33 5 168 33 200 41 25 5 153 5 180 -1
112 -23 141 -38 333 -163 81 -53 248 -161 372 -241 342 -221 418 -270 505
-327 44 -29 163 -106 265 -172 102 -66 241 -156 310 -201 446 -289 1067 -692
1249 -809 283 -182 302 -198 341 -276 36 -73 35 -60 45 -582 5 -264 0 -302
-39 -346 -37 -43 -63 -55 -221 -110 -83 -28 -164 -57 -180 -64 l-30 -12 1
-324 c1 -178 2 -328 3 -332 1 -11 11 0 98 103 299 358 515 822 587 1260 2 14
7 41 10 60 13 77 16 109 23 210 11 161 5 453 -11 535 -2 11 -7 42 -10 70 -44
324 -174 689 -349 980 -277 462 -661 814 -1142 1050 -147 72 -435 184 -435
169 0 -2 -8 -1 -17 5 -19 9 -217 55 -288 66 -177 27 -255 33 -456 33 -109 0
-199 -1 -200 -2z"/>
<path d="M1509 4146 c-2 -2 -21 -7 -42 -10 -21 -3 -73 -13 -115 -22 -42 -9
-86 -18 -97 -20 -11 -2 -31 -6 -45 -9 -14 -3 -38 -8 -55 -10 -16 -3 -106 -21
-200 -40 -93 -18 -181 -36 -195 -38 -23 -5 -152 -30 -210 -41 -14 -3 -65 -13
-115 -22 -168 -32 -163 -29 -190 -86 -17 -36 -22 -55 -15 -63 6 -7 54 -41 108
-76 53 -35 99 -66 102 -70 3 -3 109 -75 235 -160 127 -86 313 -212 415 -281
102 -69 259 -175 350 -236 91 -61 170 -115 175 -120 6 -4 142 -97 302 -205
l293 -198 182 47 c228 58 306 94 397 185 118 118 173 264 167 439 -5 149 -52
260 -157 371 -51 54 -82 76 -279 196 -80 49 -264 163 -410 253 -305 188 -358
211 -501 216 -53 2 -98 2 -100 0z"/>
<path d="M11 2680 c1 -257 2 -264 23 -284 19 -18 95 -72 500 -358 45 -31 95
-66 111 -78 61 -44 237 -169 406 -288 96 -68 244 -173 329 -234 305 -217 325
-228 406 -228 24 0 112 18 196 41 84 22 162 42 173 44 11 3 169 43 350 90 182
47 337 88 345 90 44 10 425 109 488 126 40 11 81 22 90 24 9 2 51 12 92 22
l76 20 -1 -183 c0 -101 -3 -185 -5 -187 -5 -4 -402 -111 -890 -238 -124 -33
-241 -64 -260 -69 -19 -5 -96 -26 -170 -45 -74 -20 -184 -49 -245 -65 -280
-75 -296 -76 -372 -45 -30 13 -97 56 -143 92 -16 13 -711 518 -747 543 -60 42
-559 405 -563 410 -12 15 -72 52 -76 47 -4 -4 54 -175 75 -222 5 -11 26 -58
47 -105 20 -47 45 -99 55 -117 10 -18 35 -63 56 -100 104 -190 261 -394 442
-574 176 -174 311 -279 566 -437 49 -30 180 -94 281 -137 275 -118 568 -189
864 -210 107 -8 337 -8 410 0 30 3 78 8 105 11 28 2 61 7 75 9 14 3 41 7 60
10 35 5 62 10 110 21 14 3 36 7 50 10 65 13 306 87 382 119 14 6 17 26 18 158
1 84 3 296 5 472 3 176 7 475 9 664 3 189 8 347 13 352 4 4 64 24 133 44 69
20 132 38 140 40 13 4 15 -17 15 -151 0 -140 2 -157 19 -170 29 -21 49 -3 101
88 l48 82 58 -64 57 -63 26 17 26 16 0 174 0 173 149 43 c82 23 153 40 158 37
5 -3 10 -25 12 -49 1 -24 4 -52 6 -63 2 -11 4 -31 4 -44 1 -20 4 -22 29 -16
15 4 34 8 42 10 8 2 35 8 59 15 l43 11 -6 182 c-9 251 -11 280 -25 304 -17 33
-65 63 -100 63 -17 0 -151 -34 -298 -76 -251 -70 -327 -92 -635 -178 -68 -19
-260 -74 -428 -121 -629 -178 -1009 -285 -1295 -365 -121 -34 -248 -70 -283
-80 l-63 -19 -237 171 c-130 95 -253 183 -274 197 -20 14 -101 73 -180 130
-78 58 -201 147 -273 198 -71 52 -137 99 -145 106 -8 7 -44 33 -80 57 -36 25
-67 47 -70 50 -5 6 -169 125 -206 150 -28 19 -188 135 -232 168 l-33 25 2
-263z"/>
<path d="M4192 1210 c-13 -32 -78 -184 -97 -224 -57 -126 -315 -739 -312 -743
6 -6 147 62 254 123 205 116 370 238 545 405 l38 36 -209 214 c-202 206 -210
213 -219 189z"/>
</g>
</svg>
