<?xml version="1.0" encoding="utf-8"?>
<!-- Generator: Adobe Illustrator 25.4.1, SVG Export Plug-In . SVG Version: 6.00 Build 0)  -->
<svg version="1.1" id="Layer_1" xmlns="http://www.w3.org/2000/svg" xmlns:xlink="http://www.w3.org/1999/xlink" x="0px" y="0px"
	 width="1039px" height="383px" viewBox="0 0 1039 383" style="enable-background:new 0 0 1039 383;" xml:space="preserve">
<style type="text/css">
	.st0{fill:#333333;}
	.st1{fill:url(#SVGID_1_);}
	.st2{fill:url(#SVGID_00000173857812660263263780000010230401631853976979_);}
	.st3{fill:url(#SVGID_00000096031877060861768590000009532322398362166403_);}
	.st4{fill:url(#SVGID_00000078727264748316701570000011547453329179675784_);}
</style>
<g>
	<path class="st0" d="M475.9,140.7c3.8,0,7.3,2.5,7.9,5.9l10.5,60.7c0.1,0.6,0.8,0.6,0.9,0l11.8-54.4c1.5-7.9,6.9-11.8,12.9-11.8
		c5.7,0,11.1,4,12.8,11.8l12,54.4c0,0.7,0.9,0.7,0.9,0l10.7-60.7c0.6-3.3,3.9-5.9,7.6-5.9c5,0,7.9,3.7,7.9,8c0,0.3-0.1,1-0.2,2
		L558,212c-2.8,15.8-22.5,15.7-25.9,0.1l-12-53.1c-0.1-0.5-0.2-0.6-0.6-0.3l-0.2,0.3l-11.8,53.2c-1.7,7.7-6.9,11.7-12.9,11.7
		c-6.1,0-11.8-4.2-13.5-11.9l-12.8-61.4c-0.1-0.8-0.2-1.4-0.2-1.8C468.1,144.5,470.9,140.7,475.9,140.7z"/>
	<path class="st0" d="M631.8,189.4c0,5.2-2.7,7.7-8,7.7h-30.7v1.2c0,7,5.3,11.2,13.3,11.2c3.8,0,7.9-0.8,12.4-2.5
		c5.7-2.2,10.2,1.5,10.2,6.1c0,2.8-1.3,5-3.9,6.5c-4.5,2.7-10.9,4-19.1,4c-7.9,0-14.3-2.2-19.4-6.7c-5-4.5-7.9-10.5-8.4-17.8
		c-0.3-4.4-0.3-9.2,0-14.4c0.7-7.5,3.5-13.4,8.4-17.9s11.3-6.7,18.8-6.7c8,0,14.3,2.4,19.2,7.4c4.8,4.9,7.3,11.3,7.3,19.4V189.4z
		 M615.6,186.6c0.8,0,1.3-0.5,1.3-1.4c0.3-7-4.2-11.8-11.5-11.8c-8,0-12.2,5-12.2,13.2H615.6z"/>
	<path class="st0" d="M699.6,199.6c-0.6,7.2-3.3,12.9-8.3,17.4c-4.8,4.4-11.2,6.6-19.1,6.6c-9.1,0-17.2-2.4-24.2-7.3
		c-1.8-1.3-2.8-3-2.8-5.4v-63.2c0-4.5,3.5-8,7.7-8c4.3,0,7.7,3.5,7.7,8V163c4.5-2,9-2.9,13.6-2.9c14.9,0,23.9,8.9,25.3,23.6
		C700.1,189,700.1,194.4,699.6,199.6z M684.1,186.2c-0.5-7.5-4.3-11.3-11.3-11.3c-4.8,0-8.9,1-12.1,3.1v27.3c2,1.7,7.2,3.6,11.2,3.6
		c7.5,0,11.7-3.9,12.2-11.8C684.4,194.2,684.4,190.7,684.1,186.2z"/>
	<path class="st0" d="M759.9,222.7c-7,0-11.4-4.7-11.4-11.2v-59.2c0-6.6,4.2-11.1,11.4-11.1h17.7c24.1,0,36.8,13.2,38.2,34.1
		c0.3,4,0.3,8.2,0.1,12.5c-1.5,21.4-13.9,35-38.3,35H759.9z M800.1,177.6c-0.8-14-8.2-21-22.2-21h-13.6v50.6h13.6
		c13.9,0,21.2-6.7,22.1-20.1C800.2,184.1,800.2,181,800.1,177.6z"/>
	<path class="st0" d="M838.8,154.1c-4.6,0-8.2-3.8-8.2-8.4s3.5-8.2,8.2-8.2c4.5,0,8.2,3.6,8.2,8.2
		C847,150.1,843.3,154.1,838.8,154.1z M846.5,168.4v46.9c0,4.5-3.5,8-7.7,8c-4.2,0-7.7-3.7-7.7-8v-46.9c0-4.5,3.2-8,7.7-8
		C843,160.4,846.5,163.9,846.5,168.4z"/>
	<path class="st0" d="M912.3,211.8c0,2.4-0.9,4.2-2.8,5.4c-6.2,4.3-14.3,6.4-24.4,6.4c-15.8,0-24.4-8.7-24.4-20.3
		c0-10.7,7.7-18.8,23.8-18.8c3.7,0,8,0.6,12.8,1.7V183c0-6.1-3.1-9-11-9c-3.3,0-7,0.7-11.1,2c-6.3,2-10.6-1-10.6-6
		c0-3.3,1.7-5.7,5.1-7c4.5-2,10.2-2.9,17-2.9c17,0,25.5,7.9,25.5,23.4V211.8z M897.4,207.4V197c-4.2-1.3-8-1.8-11.5-1.8
		c-6.1,0-10,3-10,7.5c0,5,3.9,7.7,10.4,7.7C890.5,210.4,894.3,209.4,897.4,207.4z"/>
	<path class="st0" d="M964.6,169c0,3.6-2.8,7.3-7.3,7.3c-1.5,0-6.2-1.2-8.7-1c-4,0.1-6,2.7-6,7.5v32.7c0,4.5-3.5,7.9-7.7,7.9
		c-4.3,0-7.7-3.6-7.7-7.9v-35.6c0-12.1,7.3-19.7,20.3-19.7c4.2,0,7.5,0.3,9.9,0.9C962.2,162.3,964.6,164.9,964.6,169z"/>
	<path class="st0" d="M975.4,171.7c-1.3-2.9-1-5.4,0.6-7.9c1.6-2.4,3.9-3.6,6.8-3.6c3.8,0,6.5,2,8,6l12.7,32.8c0.3,0.9,1,0.9,1.4,0
		l12-32.8c1.5-4,4.2-6,8-6c3,0,5.3,1.3,6.8,3.7c1.6,2.4,1.8,5,0.6,7.9l-21.6,50.2c-4.5,10.5-9.7,17.7-15.4,21.5
		c-2.2,1.5-4.4,2.2-6.4,2.2c-4.3,0-7.7-3-7.7-7.3c0-2.4,1.2-4.5,3.5-6.2c5-3.5,8.4-8.2,10.6-14.2L975.4,171.7z"/>
</g>
<g>
	<g>
		<g>
			<linearGradient id="SVGID_1_" gradientUnits="userSpaceOnUse" x1="19.9992" y1="151.5695" x2="205.0306" y2="151.5695">
				<stop  offset="0" style="stop-color:#06BBD5"/>
				<stop  offset="1" style="stop-color:#0686D5"/>
			</linearGradient>
			<path class="st1" d="M175.4,203.9c33.5-8.4,40.5-53,11.1-71.2l-53.4-33c-8.4-5.2-18.4-7-28.1-5.1l-81.6,16.1
				c-1.2,2.4-2.3,4.9-3.4,7.4l134.3,91.1L175.4,203.9z"/>
		</g>
		<g>
			
				<linearGradient id="SVGID_00000086688175042468093820000004641385620208741795_" gradientUnits="userSpaceOnUse" x1="64.0698" y1="161.1322" x2="371" y2="161.1322">
				<stop  offset="0" style="stop-color:#06BBD5"/>
				<stop  offset="1" style="stop-color:#0686D5"/>
			</linearGradient>
			<path style="fill:url(#SVGID_00000086688175042468093820000004641385620208741795_);" d="M371,190.1
				c0-101-81.9-182.9-182.9-182.9c-47.9,0-91.5,18.4-124.1,48.5l45.4-9c9.3-1.8,18.8,0,26.8,5.1l207.1,134.3
				c5.8,3.8,9.4,10.2,9.5,17.1l1,45.8c0.1,5.7-3.4,10.7-8.8,12.6l-23.4,8.1V315C352.3,282.3,371,238.4,371,190.1z"/>
		</g>
		<g>
			
				<linearGradient id="SVGID_00000149348970251440729560000004218310878435939504_" gradientUnits="userSpaceOnUse" x1="260.348" y1="324.6489" x2="317.1349" y2="324.6489">
				<stop  offset="0" style="stop-color:#06BBD5"/>
				<stop  offset="1" style="stop-color:#0686D5"/>
			</linearGradient>
			<path style="fill:url(#SVGID_00000149348970251440729560000004218310878435939504_);" d="M317.1,319.7l-16.8-17.4l-11.2-11.2l0,0
				l-28.7,67.1C281.7,349,300.9,335.9,317.1,319.7z"/>
		</g>
		<g>
			
				<linearGradient id="SVGID_00000026878439039236149010000014921740852544097704_" gradientUnits="userSpaceOnUse" x1="5.2616" y1="274.3699" x2="334.2847" y2="274.3699">
				<stop  offset="0" style="stop-color:#06BBD5"/>
				<stop  offset="1" style="stop-color:#0686D5"/>
			</linearGradient>
			<path style="fill:url(#SVGID_00000026878439039236149010000014921740852544097704_);" d="M333.3,211.4c-0.2-5.4-5.4-9.2-10.6-7.7
				L122.5,260L5.8,175.7c-0.4,4.8-0.6,9.6-0.6,14.4c0,7.3,0.4,14.6,1.3,21.7l109.5,77.6c4.1,2.9,9.2,3.8,14,2.6l118.1-30.5v25.4
				l-120.5,31.8c-5,1.3-10.4,0.3-14.6-2.7l-99.8-72.5c22.8,75,92.5,129.6,175,129.6c24.1,0,47.1-4.7,68.1-13.1l1.4-110.7l0.3,0.3
				l0-0.7l19.8-5.7v19c0,3.5,3.5,5,5.2,2.1l6.1-10.8l6.6,7.3c1.8,2.1,4.7,0.4,4.7-2.7v-21.5l21.2-6.1l1.4,12.7l11.3-2.8L333.3,211.4
				z"/>
		</g>
	</g>
</g>
<g>
</g>
<g>
</g>
<g>
</g>
<g>
</g>
<g>
</g>
<g>
</g>
<g>
</g>
<g>
</g>
<g>
</g>
<g>
</g>
<g>
</g>
<g>
</g>
<g>
</g>
<g>
</g>
<g>
</g>
</svg>
